<svg xmlns="http://www.w3.org/2000/svg" width="900" height="520" viewBox="0 0 900 520"><rect width="900" height="520" fill="white"/><g font-family="Arial" fill="#111827"><text x="450" y="35" text-anchor="middle" font-size="22" font-weight="bold">Ensemble of a stochastic process X(t, ζ)</text><path d="M85 440H830M85 440V70" fill="none" stroke="#374151" stroke-width="2"/><text x="840" y="447" font-size="18">t</text><text x="55" y="70" font-size="18">X</text><g fill="none" stroke="#aeb7c4" stroke-width="2.5"><path d="M85 330C165 240 225 385 310 295S460 180 550 275 710 355 830 225"/><path d="M85 205C170 335 245 145 330 235S485 365 570 245 730 120 830 185"/><path d="M85 370C175 305 245 420 335 330S485 235 580 345 730 390 830 310"/><path d="M85 150C175 95 245 255 340 160S500 105 585 190 735 270 830 135"/><path d="M85 280C165 175 260 245 345 200S500 315 600 220 745 175 830 265"/></g><path d="M85 250C175 390 255 300 340 365S490 305 585 150 735 210 830 105" fill="none" stroke="#2563eb" stroke-width="5"/><text x="640" y="125" font-size="17" fill="#2563eb" font-weight="bold">fixed ζ = ζᵢ</text><text x="640" y="147" font-size="15" fill="#2563eb">sample path X(t, ζᵢ)</text><path d="M470 72V440" stroke="#dc2626" stroke-width="3" stroke-dasharray="8 7"/><text x="470" y="470" text-anchor="middle" font-size="17" fill="#dc2626" font-weight="bold">fixed t = t₀</text><g fill="#dc2626" stroke="white" stroke-width="2"><circle cx="470" cy="218.921" r="6"/><circle cx="470" cy="319.576" r="6"/><circle cx="470" cy="264.154" r="6"/><circle cx="470" cy="108.418" r="6"/><circle cx="470" cy="230.465" r="6"/><circle cx="470" cy="326.957" r="6"/></g><text x="565" y="410" font-size="16" fill="#dc2626" font-weight="bold">random variable X(t₀, ζ)</text><text x="565" y="430" font-size="14" fill="#6b7280">values across n trials</text><path d="M105 485H345" stroke="#2563eb" stroke-width="4"/><text x="355" y="490" font-size="15">one realization (horizontal)</text><path d="M590 478V500" stroke="#dc2626" stroke-width="3" stroke-dasharray="5 4"/><text x="605" y="490" font-size="15">ensemble slice (vertical)</text></g></svg>
